REM DIRINDEX 1\2,1\3\7,1\3\8,1\4\9,1\4\10,1\4\11,1\5\12,1\5\13,1\5\14,1\6\15,1\6\16,1\6\17
REM DIRNAME "folder01","folder02","folder03","folder04","folder05","folder06","folder07","folder08","folder09","folder10","folder11","folder12","folder13","folder14","folder15","folder16","folder17"
TITLE ""
FILE "2Q_t_1118-1134.mp3" MP3
  TRACK 01 AUDIO
    TITLE "0:"
    INDEX 01 00:00:00
  TRACK 02 AUDIO
    TITLE "7:cjc174_4028"
    INDEX 01 00:00:12
  TRACK 03 AUDIO
    TITLE "0:"
    INDEX 01 00:01:41
  TRACK 04 AUDIO
    TITLE "8:cjc174_4029"
    INDEX 01 00:02:13
  TRACK 05 AUDIO
    TITLE "0:"
    INDEX 01 00:04:37
  TRACK 06 AUDIO
    TITLE "7:cjc174_4030"
    INDEX 01 00:05:10
  TRACK 07 AUDIO
    TITLE "0:"
    INDEX 01 00:06:23
  TRACK 08 AUDIO
    TITLE "8:cjc174_4031"
    INDEX 01 00:07:04
  TRACK 09 AUDIO
    TITLE "0:"
    INDEX 01 00:08:61
  TRACK 10 AUDIO
    TITLE "7:cjc174_4032"
    INDEX 01 00:09:33
  TRACK 11 AUDIO
    TITLE "0:"
    INDEX 01 00:10:40
  TRACK 12 AUDIO
    TITLE "8:cjc174_4033"
    INDEX 01 00:11:14
  TRACK 13 AUDIO
    TITLE "0:"
    INDEX 01 00:13:72
  TRACK 14 AUDIO
    TITLE "7:cjc174_4034"
    INDEX 01 00:14:42
  TRACK 15 AUDIO
    TITLE "0:"
    INDEX 01 00:15:43
  TRACK 16 AUDIO
    TITLE "8:cjc174_4035"
    INDEX 01 00:16:19
  TRACK 17 AUDIO
    TITLE "0:"
    INDEX 01 00:18:20
  TRACK 18 AUDIO
    TITLE "2:cjc174_4036"
    INDEX 01 00:18:65
  TRACK 19 AUDIO
    TITLE "0:"
    INDEX 01 00:19:68
  TRACK 20 AUDIO
    TITLE "7:cjc174_4037"
    INDEX 01 00:20:40
  TRACK 21 AUDIO
    TITLE "0:"
    INDEX 01 00:21:38
  TRACK 22 AUDIO
    TITLE "8:cjc174_4038"
    INDEX 01 00:22:12
  TRACK 23 AUDIO
    TITLE "0:"
    INDEX 01 00:24:15
  TRACK 24 AUDIO
    TITLE "7:cjc174_4039"
    INDEX 01 00:24:64
  TRACK 25 AUDIO
    TITLE "0:"
    INDEX 01 00:26:06
  TRACK 26 AUDIO
    TITLE "8:cjc174_4040"
    INDEX 01 00:26:53
  TRACK 27 AUDIO
    TITLE "0:"
    INDEX 01 00:28:05
  TRACK 28 AUDIO
    TITLE "7:cjc174_4041"
    INDEX 01 00:28:50
  TRACK 29 AUDIO
    TITLE "0:"
    INDEX 01 00:29:63
  TRACK 30 AUDIO
    TITLE "8:cjc174_4042"
    INDEX 01 00:30:35
  TRACK 31 AUDIO
    TITLE "0:"
    INDEX 01 00:31:42
  TRACK 32 AUDIO
    TITLE "7:cjc174_4043"
    INDEX 01 00:32:12
  TRACK 33 AUDIO
    TITLE "0:"
    INDEX 01 00:33:31
  TRACK 34 AUDIO
    TITLE "8:cjc174_4044"
    INDEX 01 00:34:07
  TRACK 35 AUDIO
    TITLE "0:"
    INDEX 01 00:37:00
  TRACK 36 AUDIO
    TITLE "7:cjc174_4045"
    INDEX 01 00:37:49
  TRACK 37 AUDIO
    TITLE "0:"
    INDEX 01 00:38:70
  TRACK 38 AUDIO
    TITLE "8:cjc174_4046"
    INDEX 01 00:39:46
  TRACK 39 AUDIO
    TITLE "0:"
    INDEX 01 00:41:54
  TRACK 40 AUDIO
    TITLE "7:cjc174_4047"
    INDEX 01 00:42:26
  TRACK 41 AUDIO
    TITLE "0:"
    INDEX 01 00:43:51
  TRACK 42 AUDIO
    TITLE "8:cjc174_4048"
    INDEX 01 00:44:33
  TRACK 43 AUDIO
    TITLE "0:"
    INDEX 01 00:46:61
  TRACK 44 AUDIO
    TITLE "7:cjc174_4049"
    INDEX 01 00:47:31
  TRACK 45 AUDIO
    TITLE "0:"
    INDEX 01 00:48:49
  TRACK 46 AUDIO
    TITLE "8:cjc174_4050"
    INDEX 01 00:49:22
  TRACK 47 AUDIO
    TITLE "0:"
    INDEX 01 00:50:36
  TRACK 48 AUDIO
    TITLE "7:cjc174_4051"
    INDEX 01 00:51:08
  TRACK 49 AUDIO
    TITLE "0:"
    INDEX 01 00:52:27
  TRACK 50 AUDIO
    TITLE "8:cjc174_4052"
    INDEX 01 00:53:01
  TRACK 51 AUDIO
    TITLE "0:"
    INDEX 01 00:54:45
  TRACK 52 AUDIO
    TITLE "7:cjc174_4053"
    INDEX 01 00:55:17
  TRACK 53 AUDIO
    TITLE "0:"
    INDEX 01 00:56:46
  TRACK 54 AUDIO
    TITLE "8:cjc174_4054"
    INDEX 01 00:57:18
  TRACK 55 AUDIO
    TITLE "0:"
    INDEX 01 00:58:27
  TRACK 56 AUDIO
    TITLE "7:cjc174_4055"
    INDEX 01 00:58:70
  TRACK 57 AUDIO
    TITLE "0:"
    INDEX 01 01:00:16
  TRACK 58 AUDIO
    TITLE "8:cjc174_4056"
    INDEX 01 01:00:65
  TRACK 59 AUDIO
    TITLE "0:"
    INDEX 01 01:03:66
  TRACK 60 AUDIO
    TITLE "7:cjc174_4057"
    INDEX 01 01:04:36
  TRACK 61 AUDIO
    TITLE "0:"
    INDEX 01 01:05:53
  TRACK 62 AUDIO
    TITLE "8:cjc174_4058"
    INDEX 01 01:06:31
  TRACK 63 AUDIO
    TITLE "0:"
    INDEX 01 01:08:18
  TRACK 64 AUDIO
    TITLE "7:cjc174_4059"
    INDEX 01 01:08:65
  TRACK 65 AUDIO
    TITLE "0:"
    INDEX 01 01:09:66
  TRACK 66 AUDIO
    TITLE "8:cjc174_4060"
    INDEX 01 01:10:50
  TRACK 67 AUDIO
    TITLE "0:"
    INDEX 01 01:11:73
  TRACK 68 AUDIO
    TITLE "7:cjc174_4061"
    INDEX 01 01:12:43
  TRACK 69 AUDIO
    TITLE "0:"
    INDEX 01 01:13:60
  TRACK 70 AUDIO
    TITLE "8:cjc174_4062"
    INDEX 01 01:14:30
  TRACK 71 AUDIO
    TITLE "0:"
    INDEX 01 01:15:34
